<?xml version="1.0" encoding="UTF-8"?>
<svg id="a" data-name="white" xmlns="http://www.w3.org/2000/svg" viewBox="0 0 450 450">
  <circle cx="225" cy="225" r="225" style="fill: #24292f;"/>
  <g>
    <path d="M150,180l26.47,22.5-26.47,22.5" style="fill: none; stroke: #fff; stroke-linecap: round; stroke-linejoin: round; stroke-width: 20px;"/>
    <line x1="255.88" y1="225" x2="300" y2="225" style="fill: none; stroke: #fff; stroke-linecap: round; stroke-linejoin: round; stroke-width: 20px;"/>
  </g>
  <path d="M450,225c0,103.84-70.35,191.26-165.99,217.19v-60.22c0-24.47-10.12-45.78-25.11-55.59,87-9.31,129.12-100.54,78.4-166.26,5.72-15.14,4.83-46.26-1.33-58.28-17.62-2.21-41.84,7.12-55.46,19.57-31.38-9.89-77.84-10.45-110.97,0-13.67-12.45-37.89-21.78-55.51-19.57-6.12,12.02-7.01,43.14-1.29,58.28-50.83,65.71-8.6,156.97,78.36,166.26-14.95,9.81-25.11,31.12-25.11,55.59v60.22C70.35,416.26,0,328.84,0,225,0,100.74,100.73,0,225,0s225,100.74,225,225Z" style="fill: #fff;"/>
</svg>