<?xml version="1.0" encoding="UTF-8"?>
<svg id="a" data-name="white" xmlns="http://www.w3.org/2000/svg" viewBox="0 0 465 465.1">
  <circle cx="232.5" cy="232.6" r="232.5" style="fill: #24292e;"/>
  <path d="M232.5.1C104.09.1,0,104.19,0,232.6c0,74.84,35.37,141.41,90.3,183.94,3.5-20.01,10.56-39.26,21.17-56.23-42.82-49.76-43.8-126.53-2.91-177.51-6.61-67.75,40.7-89.27,75.73-47.2,14.57-3.63,30.64-5.51,48.22-5.29,17.58-.22,33.65,1.67,48.21,5.3,35.04-42.07,82.35-20.55,75.73,47.21,40.88,50.98,39.91,127.76-2.92,177.51,10.61,16.97,17.66,36.22,21.17,56.23,54.93-42.53,90.3-109.1,90.3-183.94C465,104.19,360.91.1,232.5.1Z" style="fill: #fff;"/>
  <g>
    <path d="M155.85,228.35l28.12,23.44-28.12,23.44" style="fill: none; stroke: #fff; stroke-linecap: round; stroke-linejoin: round; stroke-width: 20px;"/>
    <line x1="268.35" y1="275.22" x2="315.23" y2="275.22" style="fill: none; stroke: #fff; stroke-linecap: round; stroke-linejoin: round; stroke-width: 20px;"/>
  </g>
</svg>